HIERARCHY
ROOT ui
{
	 OFFSET 0 0 0
	 CHANNELS 3 XPosition YPosition Z Position
	 EndSite
	 {
	 OFFSET 0 -1 0
	 }
}
ROOT li
{
	 OFFSET 0 0 0
	 CHANNELS 3 XPosition YPosition Z Position
	 EndSite
	 {
	 OFFSET 0 -1 0
	 }
}
ROOT ul
{
	 OFFSET 0 0 0
	 CHANNELS 3 XPosition YPosition Z Position
	 EndSite
	 {
	 OFFSET 0 -1 0
	 }
}
ROOT ll
{
	 OFFSET 0 0 0
	 CHANNELS 3 XPosition YPosition Z Position
	 EndSite
	 {
	 OFFSET 0 -1 0
	 }
}
ROOT tt
{
	 OFFSET 0 0 0
	 CHANNELS 3 XPosition YPosition Z Position
	 EndSite
	 {
	 OFFSET 0 -1 0
	 }
}
ROOT tb
{
	 OFFSET 0 0 0
	 CHANNELS 3 XPosition YPosition Z Position
	 EndSite
	 {
	 OFFSET 0 -1 0
	 }
}
ROOT td
{
	 OFFSET 0 0 0
	 CHANNELS 3 XPosition YPosition Z Position
	 EndSite
	 {
	 OFFSET 0 -1 0
	 }
}
ROOT v
{
	 OFFSET 0 0 0
	 CHANNELS 3 XPosition YPosition Z Position
	 EndSite
	 {
	 OFFSET 0 -1 0
	 }
}
ROOT bn
{
	 OFFSET 0 0 0
	 CHANNELS 3 XPosition YPosition Z Position
	 EndSite
	 {
	 OFFSET 0 -1 0
	 }
}
MOTION
Frames: 10
Frame Time: 0.002
0.0010527290105819703	8.009859919548035E-4	0		0.5703071899414063	-2.465498046875	0		-1.0902991943359375	-0.02057596206665039	0		-0.6089832153320313	-2.801801513671875	0		1.35774658203125	-0.8332012939453125	0		2.96908349609375	-0.01525392246246338	0		4.6251494140625	0.30009591674804686	0		5.69474072265625	0.2861858215332031	0		-0.3795169372558594	5.8850107421875	0		
0.041821804046630856	-0.006718153953552246	0		0.6059398803710937	-2.463015625	0		-1.097478271484375	-0.023374826431274413	0		-0.612408447265625	-2.800702392578125	0		1.3396455078125	-0.8231234741210938	0		2.9861171875	-0.0017886699438095092	0		4.6220546875	0.3006376037597656	0		5.700205078125	0.25901519775390625	0		-0.36208148193359374	5.880833984375	0		
0.004704299926757812	-0.007260651111602783	0		0.54962744140625	-2.458376953125	0		-1.107498046875	-0.016140201568603515	0		-0.592724609375	-2.79389990234375	0		1.3244652099609375	-0.822082763671875	0		2.95794873046875	-0.006756710052490234	0		4.6189921875	0.30117852783203125	0		5.69086669921875	0.2617093811035156	0		-0.36554046630859377	5.8829150390625	0		
0.04558328628540039	-0.013809491157531738	0		0.5443049926757813	-2.460394287109375	0		-1.1076422119140625	-0.024047683715820313	0		-0.6300027465820313	-2.789388671875	0		1.333184814453125	-0.8343595581054688	0		2.97593212890625	-0.00532071304321289	0		4.61599658203125	0.3017096862792969	0		5.68228076171875	0.26264047241210936	0		-0.38689935302734374	5.88821044921875	0		
-0.01112552547454834	0.004870159149169922	0		0.5291084594726563	-2.460306396484375	0		-1.1725321044921875	-0.019144889831542968	0		-0.6203126220703125	-2.795501953125	0		1.345218017578125	-0.8297017822265625	0		2.9618076171875	-0.019495010375976562	0		4.60799365234375	0.2942885131835937	0		5.68435986328125	0.2441841583251953	0		-0.38726318359375	5.88621337890625	0		
0.05490087509155273	-0.007069497108459472	0		0.5550714721679687	-2.457781494140625	0		-1.1012484130859375	-0.011034022331237793	0		-0.6512615966796875	-2.78312060546875	0		1.303390380859375	-0.823375244140625	0		2.977317138671875	0.005925356864929199	0		4.6192880859375	0.3005963134765625	0		5.68750537109375	0.27583154296875	0		-0.39046807861328126	5.88822119140625	0		
0.01925373649597168	-0.0037274489402770996	0		0.5412333984375	-2.45077734375	0		-1.10797705078125	-0.013957554817199708	0		-0.60022900390625	-2.7838486328125	0		1.3395648193359375	-0.8280990600585938	0		2.948343017578125	-0.016110103607177736	0		4.60766943359375	0.3031741638183594	0		5.682671875	0.264433837890625	0		-0.35848773193359373	5.894728515625	0		
0.012686429023742675	-0.005807442188262939	0		0.5364448852539062	-2.451933837890625	0		-1.11455859375	-0.016929571151733398	0		-0.67193798828125	-2.77601220703125	0		1.3288133544921874	-0.8382518920898437	0		2.964983642578125	-0.0027754180431365967	0		4.60517041015625	0.3036019592285156	0		5.67793359375	0.25125531005859375	0		-0.4096449584960937	5.88127978515625	0		
-0.017725963592529297	-0.007618678092956543	0		0.5416967163085937	-2.462271240234375	0		-1.12097412109375	-0.018955522537231446	0		-0.5937757568359375	-2.791207763671875	0		1.3263614501953125	-0.8375573120117188	0		2.9574365234375	-0.01516461753845215	0		4.59771826171875	0.29606057739257813	0		5.67331298828125	0.23975076293945313	0		-0.3773985595703125	5.8876826171875	0		
0.00503977918624878	-0.008188694953918456	0		0.541286376953125	-2.45958349609375	0		-1.19108056640625	-0.009183855056762695	0		-0.6739806518554687	-2.77035009765625	0		1.326122314453125	-0.8329395141601562	0		2.95548486328125	0.005333493232727051	0		4.60960546875	0.3022267761230469	0		5.67757177734375	0.26596728515625	0		-0.39805120849609377	5.89173291015625	0		
